<svg id="Layer_1" data-name="Layer 1" xmlns="http://www.w3.org/2000/svg" xmlns:xlink="http://www.w3.org/1999/xlink" viewBox="0 0 88 56.32"><defs><style>.cls-1{fill:url(#linear-gradient);}.cls-2{fill:url(#linear-gradient-2);}.cls-3{fill:url(#linear-gradient-3);}.cls-4{fill:url(#linear-gradient-4);}.cls-5{opacity:0.2;}.cls-6{fill:#231f20;}.cls-7{fill:url(#linear-gradient-5);}.cls-8{fill:url(#linear-gradient-6);}.cls-9{fill:url(#linear-gradient-7);}.cls-10{fill:url(#linear-gradient-8);}</style><linearGradient id="linear-gradient" x1="62.48" y1="56.32" x2="62.48" y2="28.16" gradientUnits="userSpaceOnUse"><stop offset="0" stop-color="#f8ed32"/><stop offset="1" stop-color="#fbb041"/></linearGradient><linearGradient id="linear-gradient-2" x1="41.36" y1="56.32" x2="41.36" y2="28.16" xlink:href="#linear-gradient"/><linearGradient id="linear-gradient-3" x1="46.64" y1="28.16" x2="46.64" gradientUnits="userSpaceOnUse"><stop offset="0" stop-color="#bad532"/><stop offset="1" stop-color="#55c4c4"/></linearGradient><linearGradient id="linear-gradient-4" x1="25.52" y1="28.16" x2="25.52" xlink:href="#linear-gradient-3"/><linearGradient id="linear-gradient-5" x1="54.56" y1="72.16" x2="54.56" y2="15.84" gradientUnits="userSpaceOnUse"><stop offset="0" stop-color="#fbb041"/><stop offset="1" stop-color="#f8ed32"/></linearGradient><linearGradient id="linear-gradient-6" x1="75.68" y1="72.16" x2="75.68" y2="15.84" xlink:href="#linear-gradient-5"/><linearGradient id="linear-gradient-7" x1="33.44" y1="72.16" x2="33.44" y2="15.84" gradientUnits="userSpaceOnUse"><stop offset="0" stop-color="#55c4c4"/><stop offset="1" stop-color="#bad532"/></linearGradient><linearGradient id="linear-gradient-8" x1="12.32" y1="72.16" x2="12.32" y2="15.84" xlink:href="#linear-gradient-7"/></defs><g id="LWPOLYLINE"><polygon class="cls-1" points="61.6 28.16 59.84 37.55 63.36 56.32 65.12 46.93 61.6 28.16"/></g><g id="LWPOLYLINE-2" data-name="LWPOLYLINE"><polygon class="cls-2" points="40.48 28.16 38.72 37.55 42.24 56.32 44 46.93 40.48 28.16"/></g><g id="LWPOLYLINE-3" data-name="LWPOLYLINE"><polygon class="cls-3" points="45.76 0 44 9.39 47.52 28.16 49.28 18.77 45.76 0"/></g><g id="LWPOLYLINE-4" data-name="LWPOLYLINE"><polygon class="cls-4" points="24.64 0 22.88 9.39 26.4 28.16 28.16 18.77 24.64 0"/></g><g id="LWPOLYLINE-5" data-name="LWPOLYLINE" class="cls-5"><polygon class="cls-6" points="41.54 33.79 40.48 28.16 38.72 37.55 39.78 43.18 41.54 33.79"/></g><g id="LWPOLYLINE-6" data-name="LWPOLYLINE" class="cls-5"><polygon class="cls-6" points="62.66 33.79 61.6 28.16 59.84 37.55 60.9 43.18 62.66 33.79"/></g><g id="LWPOLYLINE-7" data-name="LWPOLYLINE" class="cls-5"><polygon class="cls-6" points="46.82 5.63 45.76 0 44 9.39 45.06 15.02 46.82 5.63"/></g><g id="LWPOLYLINE-8" data-name="LWPOLYLINE" class="cls-5"><polygon class="cls-6" points="25.7 5.63 24.64 0 22.88 9.39 23.94 15.02 25.7 5.63"/></g><g id="LWPOLYLINE-9" data-name="LWPOLYLINE"><path class="cls-7" d="M64.49,15.84h2.39L58.47,60.67A14.08,14.08,0,0,1,44.63,72.16H42.24l8.41-44.83A14.08,14.08,0,0,1,64.49,15.84Z" transform="translate(0 -15.84)"/></g><g id="LWPOLYLINE-10" data-name="LWPOLYLINE"><path class="cls-8" d="M73.92,15.84H88L79.59,60.67A14.08,14.08,0,0,1,65.75,72.16H63.36Z" transform="translate(0 -15.84)"/></g><g id="LWPOLYLINE-11" data-name="LWPOLYLINE"><path class="cls-9" d="M43.37,15.84h2.39L37.35,60.67A14.08,14.08,0,0,1,23.51,72.16H21.12l8.41-44.83A14.08,14.08,0,0,1,43.37,15.84Z" transform="translate(0 -15.84)"/></g><g id="LWPOLYLINE-12" data-name="LWPOLYLINE"><path class="cls-10" d="M22.25,15.84h2.39L14.08,72.16H0L8.41,27.33A14.08,14.08,0,0,1,22.25,15.84Z" transform="translate(0 -15.84)"/></g></svg>